<?xml version="1.0" standalone="no"?>
<!DOCTYPE svg PUBLIC "-//W3C//DTD SVG 20010904//EN"
 "http://www.w3.org/TR/2001/REC-SVG-20010904/DTD/svg10.dtd">
<svg version="1.0" xmlns="http://www.w3.org/2000/svg"
 width="1500.000000pt" height="1500.000000pt" viewBox="0 0 1500.000000 1500.000000"
 preserveAspectRatio="xMidYMid meet">
<metadata>
Created by potrace 1.11, written by Peter Selinger 2001-2013
</metadata>
<g transform="translate(0.000000,1500.000000) scale(0.100000,-0.100000)"
fill="#000000" stroke="none">
<path d="M7260 13130 c-1014 -54 -1943 -390 -2750 -994 -361 -270 -730 -641
-1011 -1018 -505 -677 -836 -1498 -943 -2338 -39 -304 -51 -754 -27 -1035 90
-1056 480 -2006 1160 -2825 122 -147 452 -477 601 -601 1066 -889 2401 -1294
3772 -1143 876 96 1726 433 2433 964 361 271 729 639 996 995 502 669 823
1432 948 2256 72 469 72 1029 0 1498 -124 814 -442 1577 -931 2234 -276 369
-649 745 -1008 1013 -766 573 -1656 910 -2600 983 -194 15 -470 20 -640 11z
m940 -4815 l0 -2755 1550 0 1550 0 0 -160 0 -160 -1714 0 -1715 0 -34 43 c-19
23 -139 186 -268 362 -211 290 -514 706 -754 1035 -461 631 -566 775 -614 843
l-55 77 -1033 0 -1033 0 0 -1200 0 -1200 -170 0 -170 0 0 2915 0 2915 165 0
165 0 37 -48 c21 -26 143 -191 270 -367 319 -438 411 -564 602 -825 91 -124
387 -531 660 -905 272 -374 531 -729 576 -790 45 -60 88 -120 96 -132 l14 -23
767 0 768 0 0 1565 0 1565 170 0 170 0 0 -2755z"/>
<path d="M4080 9183 l0 -1243 905 0 c498 0 905 2 905 5 0 3 -73 105 -163 227
-90 123 -209 286 -265 363 -785 1078 -1328 1821 -1366 1870 -14 18 -15 -97
-16 -1222z"/>
<path d="M6586 7588 c7 -11 315 -436 644 -886 58 -79 139 -190 180 -247 185
-256 443 -605 446 -605 2 0 4 394 4 875 l0 875 -641 0 c-509 0 -639 -3 -633
-12z"/>
<path d="M5887 2360 c-65 -11 -133 -46 -178 -91 -157 -157 -157 -511 0 -668
102 -102 291 -127 431 -56 63 32 134 113 160 182 67 180 38 406 -67 523 -54
60 -116 94 -198 109 -65 12 -79 12 -148 1z m206 -78 c92 -41 149 -131 168
-269 22 -154 -16 -298 -100 -376 -59 -55 -105 -72 -201 -72 -137 0 -233 70
-277 205 -25 76 -25 264 0 337 35 101 99 162 197 190 57 16 158 9 213 -15z"/>
<path d="M2891 1941 c-99 -230 -181 -421 -181 -425 0 -3 15 -6 33 -6 31 0 33
2 81 115 l48 115 231 -2 230 -3 47 -110 c46 -109 47 -110 83 -113 l35 -3 -170
393 c-93 216 -175 408 -183 426 -11 26 -20 32 -43 32 -29 0 -31 -4 -211 -419z
m309 109 c51 -118 95 -223 97 -232 5 -17 -9 -18 -197 -18 -158 0 -201 3 -197
13 29 72 181 426 189 440 5 10 11 17 13 15 1 -1 44 -100 95 -218z"/>
<path d="M3500 2330 l0 -30 150 0 150 0 0 -395 0 -395 35 0 35 0 0 395 0 395
150 0 150 0 0 30 0 30 -335 0 -335 0 0 -30z"/>
<path d="M4690 1935 l0 -425 30 0 30 0 0 360 c0 198 3 360 8 360 4 0 126 -162
272 -360 235 -317 268 -359 293 -359 l27 -1 0 425 0 425 -30 0 -30 0 0 -360
c0 -198 -4 -360 -8 -360 -5 0 -127 162 -273 360 -235 319 -267 359 -291 360
l-28 0 0 -425z"/>
<path d="M6570 1936 l0 -426 35 0 35 0 0 190 0 190 144 0 c150 0 185 -7 223
-42 13 -12 46 -87 80 -179 l58 -159 33 0 c17 0 32 4 32 8 0 16 -111 307 -126
330 -8 13 -29 31 -46 42 l-30 18 33 17 c75 38 114 91 124 171 14 104 -32 190
-124 232 -53 25 -66 26 -263 30 l-208 4 0 -426z m449 339 c60 -35 76 -67 76
-150 0 -87 -17 -118 -85 -152 -41 -21 -58 -23 -207 -23 l-163 0 0 176 0 176
173 -4 c150 -3 176 -6 206 -23z"/>
<path d="M7320 2330 l0 -30 150 0 150 0 0 -395 0 -395 35 0 35 0 0 395 0 395
150 0 150 0 0 30 0 30 -335 0 -335 0 0 -30z"/>
<path d="M8170 1935 l0 -425 35 0 35 0 0 200 0 200 273 -2 272 -3 3 -197 2
-198 30 0 30 0 0 425 0 425 -30 0 -30 0 0 -195 0 -195 -275 0 -275 0 0 195 0
195 -35 0 -35 0 0 -425z"/>
<path d="M9120 1935 l0 -425 260 0 260 0 0 30 0 30 -225 0 -225 0 0 170 0 170
210 0 210 0 0 30 0 30 -210 0 -210 0 0 165 0 165 225 0 225 0 0 30 0 30 -260
0 -260 0 0 -425z"/>
<path d="M9860 1936 l0 -426 35 0 35 0 0 190 0 190 144 0 c150 0 185 -7 223
-42 13 -12 46 -87 80 -179 l58 -159 33 0 c17 0 32 4 32 8 0 16 -111 307 -126
330 -8 13 -29 31 -46 42 l-30 18 33 17 c75 38 114 91 124 171 14 104 -32 190
-124 232 -53 25 -66 26 -263 30 l-208 4 0 -426z m449 339 c60 -35 76 -67 76
-150 0 -87 -17 -118 -85 -152 -41 -21 -58 -23 -207 -23 l-163 0 0 176 0 176
173 -4 c150 -3 176 -6 206 -23z"/>
<path d="M10720 1936 l0 -426 35 0 35 0 0 190 0 190 144 0 c150 0 185 -7 223
-42 13 -12 46 -87 80 -179 l58 -159 33 0 c17 0 32 4 32 8 0 16 -111 307 -126
330 -8 13 -29 31 -46 42 l-30 18 33 17 c75 38 114 91 124 171 14 104 -32 190
-124 232 -53 25 -66 26 -263 30 l-208 4 0 -426z m449 339 c60 -35 76 -67 76
-150 0 -87 -17 -118 -85 -152 -41 -21 -58 -23 -207 -23 l-163 0 0 176 0 176
173 -4 c150 -3 176 -6 206 -23z"/>
<path d="M11691 1941 c-99 -230 -181 -421 -181 -425 0 -3 15 -6 33 -6 31 0 33
2 81 115 l48 115 231 -2 230 -3 47 -110 c46 -109 47 -110 83 -113 l35 -3 -170
393 c-93 216 -175 408 -183 426 -11 26 -20 32 -43 32 -29 0 -31 -4 -211 -419z
m309 109 c51 -118 95 -223 97 -232 5 -17 -9 -18 -197 -18 -158 0 -201 3 -197
13 29 72 181 426 189 440 5 10 11 17 13 15 1 -1 44 -100 95 -218z"/>
</g>
</svg>
